<svg width="24" height="24" viewBox="0 0 24 24" fill="none" xmlns="http://www.w3.org/2000/svg">
<mask id="mask0_5980_99" style="mask-type:alpha" maskUnits="userSpaceOnUse" x="0" y="0" width="24" height="24">
<rect width="24" height="24" fill="#D9D9D9"/>
</mask>
<g mask="url(#mask0_5980_99)">
<path d="M10.2679 5C11.0377 3.66667 12.9623 3.66667 13.7321 5L20.6603 17C21.4301 18.3333 20.4678 20 18.9282 20H5.0718C3.5322 20 2.56995 18.3333 3.33975 17L10.2679 5Z" fill="#FF5F3D"/>
<path d="M11 10C11 9.44772 11.4477 9 12 9C12.5523 9 13 9.44772 13 10V14H11V10Z" fill="white"/>
<path d="M11 16H13V17C13 17.5523 12.5523 18 12 18C11.4477 18 11 17.5523 11 17V16Z" fill="white"/>
</g>
</svg>
