<svg width="16" height="16" viewBox="0 0 16 16" fill="none" xmlns="http://www.w3.org/2000/svg">
<mask id="mask0_5928_3347" style="mask-type:alpha" maskUnits="userSpaceOnUse" x="0" y="0" width="16" height="16">
<rect width="16" height="16" fill="#D9D9D9"/>
</mask>
<g mask="url(#mask0_5928_3347)">
<path d="M4.49363 7.70363C4.49364 7.63652 4.50688 7.57008 4.53259 7.50812C4.5583 7.44616 4.59598 7.3899 4.64345 7.34257C4.69093 7.29523 4.74726 7.25776 4.80923 7.2323C4.8712 7.20684 4.93758 7.1939 5.00456 7.19421L5.85162 7.19698C5.98668 7.19698 6.11621 7.25074 6.21171 7.34642C6.30722 7.4421 6.36087 7.57188 6.36087 7.70719V10.9164C6.45627 10.8881 6.57837 10.8579 6.71273 10.8262C6.80581 10.8042 6.88877 10.7514 6.94815 10.6764C7.00753 10.6013 7.03985 10.5083 7.03987 10.4125V6.43192C7.03987 6.29659 7.09352 6.16681 7.18902 6.07111C7.28452 5.97541 7.41405 5.92164 7.54912 5.92161H8.39876C8.53383 5.92164 8.66336 5.97541 8.75886 6.07111C8.85436 6.16681 8.90801 6.29659 8.90801 6.43192V10.1265C8.90801 10.1265 9.12056 10.0403 9.32748 9.95277C9.40438 9.92018 9.46999 9.86564 9.51614 9.79594C9.56229 9.72624 9.58694 9.64447 9.587 9.56082V5.15635C9.587 5.02105 9.64064 4.89129 9.73612 4.79561C9.83161 4.69993 9.96111 4.64616 10.0962 4.64614H10.9449C11.0799 4.64627 11.2093 4.70008 11.3047 4.79575C11.4001 4.89142 11.4537 5.02112 11.4537 5.15635V8.78328C12.1895 8.249 12.9352 7.60636 13.527 6.83367C13.6129 6.7215 13.6697 6.5898 13.6924 6.45029C13.7151 6.31078 13.703 6.16781 13.6571 6.03413C13.3832 5.24451 12.9477 4.52089 12.3786 3.90955C11.8095 3.29822 11.1193 2.81265 10.3522 2.4839C9.58501 2.15516 8.7578 1.99049 7.92347 2.00042C7.08915 2.01036 6.26608 2.19469 5.50694 2.5416C4.74779 2.88852 4.06929 3.3904 3.51486 4.01511C2.96042 4.63982 2.54226 5.37362 2.28712 6.16953C2.03199 6.96545 1.94551 7.80597 2.03321 8.6373C2.1209 9.46862 2.38086 10.2725 2.79643 10.9974C2.86883 11.1224 2.97535 11.2242 3.10347 11.2907C3.23159 11.3571 3.37599 11.3856 3.51971 11.3728C3.68027 11.3586 3.88017 11.3386 4.11784 11.3106C4.22128 11.2989 4.31678 11.2494 4.38615 11.1716C4.45552 11.0938 4.49391 10.9932 4.49402 10.8889V7.70363" fill="#BFBFBF"/>
<path d="M4.47559 12.8504C5.37023 13.5025 6.42748 13.8939 7.53037 13.9813C8.63325 14.0687 9.73878 13.8488 10.7246 13.3458C11.7105 12.8428 12.5383 12.0763 13.1163 11.1312C13.6944 10.1862 14.0003 9.0993 14.0001 7.99088C14.0001 7.85221 13.9936 7.71572 13.9844 7.57962C11.7933 10.8537 7.74759 12.3844 4.47559 12.8504Z" fill="#BFBFBF"/>
</g>
</svg>
