<svg width="89" height="32" viewBox="0 0 89 32" fill="none" xmlns="http://www.w3.org/2000/svg">
<mask id="mask0_6029_167" style="mask-type:alpha" maskUnits="userSpaceOnUse" x="0" y="2" width="11" height="7">
<path d="M0 2.16986H10.8493V8.67945H3.25479L0 6.32877V2.16986Z" fill="#676767"/>
</mask>
<g mask="url(#mask0_6029_167)">
<path d="M-0.723294 7.59452L10.8493 3.61644L22.4219 7.59452" stroke="black" stroke-width="2.16986"/>
</g>
<mask id="mask1_6029_167" style="mask-type:alpha" maskUnits="userSpaceOnUse" x="10" y="2" width="12" height="7">
<path d="M21.6986 2.16986H10.8493V8.67945H18.4438L21.6986 6.32877V2.16986Z" fill="#676767"/>
</mask>
<g mask="url(#mask1_6029_167)">
<path d="M22.4219 7.59452L10.8493 3.61644L-0.723289 7.59452" stroke="#3A3A3A" stroke-width="2.16986"/>
</g>
<mask id="mask2_6029_167" style="mask-type:alpha" maskUnits="userSpaceOnUse" x="0" y="0" width="11" height="7">
<rect width="10.8493" height="6.50959" fill="#282828"/>
</mask>
<g mask="url(#mask2_6029_167)">
<path d="M-0.723294 5.42466L10.8493 1.44658L22.4219 5.42466" stroke="#484848" stroke-width="2.16986"/>
</g>
<mask id="mask3_6029_167" style="mask-type:alpha" maskUnits="userSpaceOnUse" x="10" y="0" width="12" height="7">
<rect width="10.8493" height="6.50959" transform="matrix(-1 0 0 1 21.6986 0)" fill="#676767"/>
</mask>
<g mask="url(#mask3_6029_167)">
<path d="M22.4219 5.42466L10.8493 1.44658L-0.723289 5.42466" stroke="#939393" stroke-width="2.16986"/>
</g>
<mask id="mask4_6029_167" style="mask-type:alpha" maskUnits="userSpaceOnUse" x="10" y="9" width="10" height="21">
<path d="M10.8493 9.04111L17.3589 10.8493L19.5288 9.04111V29.6548H15.189H10.8493V9.04111Z" fill="#B5B5B5"/>
</mask>
<g mask="url(#mask4_6029_167)">
<path d="M18.4438 6.14795V21.7196C18.4438 22.3763 18.0878 22.9814 17.5138 23.3003L8.67944 28.2082L1.14723 24.0237C-0.230487 23.2583 -1.08495 21.8061 -1.08495 20.2301L-1.08495 6.14795" stroke="#262626" stroke-width="2.16986"/>
</g>
<mask id="mask5_6029_167" style="mask-type:alpha" maskUnits="userSpaceOnUse" x="10" y="9" width="12" height="22">
<path d="M10.8493 9.04111H19.5288L21.6986 9.76439V30.7397H10.8493V9.04111Z" fill="#B5B5B5"/>
</mask>
<g mask="url(#mask5_6029_167)">
<path d="M20.6137 7.23288V21.315C20.6137 22.891 19.7592 24.3432 18.3815 25.1086L10.8493 29.2932L3.3171 25.1086C1.93939 24.3432 1.08493 22.891 1.08493 21.315L1.08493 7.23288" stroke="#939393" stroke-width="2.16986"/>
</g>
<mask id="mask6_6029_167" style="mask-type:alpha" maskUnits="userSpaceOnUse" x="2" y="9" width="9" height="21">
<path d="M10.8493 9.04111L4.33975 10.8493L2.16988 9.04111V29.6548H6.50961H10.8493V9.04111Z" fill="#B5B5B5"/>
</mask>
<g mask="url(#mask6_6029_167)">
<path d="M3.25482 6.14795V21.7196C3.25482 22.3763 3.61084 22.9814 4.18489 23.3003L13.0192 28.2082L20.5514 24.0237C21.9291 23.2583 22.7836 21.8061 22.7836 20.2301L22.7836 6.14795" stroke="black" stroke-width="2.16986"/>
</g>
<mask id="mask7_6029_167" style="mask-type:alpha" maskUnits="userSpaceOnUse" x="0" y="9" width="11" height="22">
<path d="M10.8493 9.04111H2.16987L4.82798e-06 9.76439V30.7397H10.8493V9.04111Z" fill="#B5B5B5"/>
</mask>
<g mask="url(#mask7_6029_167)">
<path d="M1.08492 7.23288V21.315C1.08492 22.891 1.93938 24.3432 3.31709 25.1086L10.8493 29.2932L18.3815 25.1086C19.7592 24.3432 20.6137 22.891 20.6137 21.315L20.6137 7.23288" stroke="#484848" stroke-width="2.16986"/>
</g>
<path d="M8.67944 1.44656H10.8493V23.8685L8.67944 22.6027V1.44656Z" fill="#484848"/>
<path d="M10.8493 1.44656H13.0192V22.6027L10.8493 23.8685V1.44656Z" fill="#939393"/>
<path d="M34.4574 20.2055H30.9856V11.6225H27.8803V9.2115H37.5627V11.6225H34.4574V20.2055ZM48.9536 9.2115V15.3643C48.9536 16.6373 48.8122 17.6338 48.5293 18.3539C48.2593 19.0611 47.7449 19.5818 46.9863 19.9162C46.2276 20.2505 45.1218 20.4176 43.6688 20.4176C42.6015 20.4176 41.7015 20.3083 40.9685 20.0897C40.2356 19.8583 39.6505 19.4275 39.2133 18.7975C38.789 18.1674 38.5768 17.2802 38.5768 16.1358V9.2115H42.0486V15.4028C42.0486 16.0843 42.0808 16.6051 42.1451 16.9651C42.2222 17.3123 42.3894 17.5824 42.6465 17.7752C42.9037 17.9552 43.2959 18.0453 43.8231 18.0453C44.1446 18.0453 44.4467 18.0131 44.7296 17.9488C45.0125 17.8845 45.2054 17.7881 45.3082 17.6595C45.424 17.5052 45.4818 16.9459 45.4818 15.9815V9.2115H48.9536ZM56.5516 20.2055H53.0798V11.6225H49.9745V9.2115H59.6569V11.6225H56.5516V20.2055ZM71.0478 9.2115V15.3643C71.0478 16.6373 70.9064 17.6338 70.6235 18.3539C70.3534 19.0611 69.8391 19.5818 69.0805 19.9162C68.3218 20.2505 67.216 20.4176 65.763 20.4176C64.6957 20.4176 63.7956 20.3083 63.0627 20.0897C62.3298 19.8583 61.7447 19.4275 61.3075 18.7975C60.8832 18.1674 60.671 17.2802 60.671 16.1358V9.2115H64.1428V15.4028C64.1428 16.0843 64.175 16.6051 64.2392 16.9651C64.3164 17.3123 64.4836 17.5824 64.7407 17.7752C64.9979 17.9552 65.3901 18.0453 65.9173 18.0453C66.2387 18.0453 66.5409 18.0131 66.8238 17.9488C67.1067 17.8845 67.2996 17.7881 67.4024 17.6595C67.5182 17.5052 67.576 16.9459 67.576 15.9815V9.2115H71.0478ZM87.0552 20.2055H83.8149L83.5641 14.1491C83.5256 12.9533 83.4806 12.0468 83.4291 11.4296H83.3713C83.217 11.9182 83.0369 12.6769 82.8312 13.7055L82.7348 14.1877L81.4039 20.2055H78.1636L77.0449 14.7856L76.852 13.8213C76.582 12.6254 76.3956 11.8282 76.2927 11.4296H76.2348C76.1834 12.0725 76.1384 13.1205 76.0998 14.5735C76.0869 14.6635 76.0805 14.8049 76.0805 14.9978L75.9069 20.2055H72.6473L73.1102 9.2115H78.6265L79.5716 13.9563L79.803 15.2293C79.9059 14.8306 80.0023 14.387 80.0924 13.8984L80.9796 9.2115H86.6116L87.0552 20.2055Z" fill="#484848"/>
</svg>
