<svg width="16" height="16" viewBox="0 0 16 16" fill="none" xmlns="http://www.w3.org/2000/svg">
<path d="M7.65235 0.336314C7.84619 0.148797 8.15381 0.148798 8.34765 0.336315L9.80204 1.7433C9.91289 1.85053 10.067 1.90061 10.2197 1.87901L12.2233 1.59561C12.4904 1.55784 12.7393 1.73865 12.7859 2.00429L13.1355 3.99744C13.1621 4.14934 13.2574 4.28045 13.3936 4.35273L15.1812 5.30116C15.4194 5.42756 15.5145 5.72013 15.396 5.96242L14.5073 7.78042C14.4396 7.91897 14.4396 8.08103 14.5073 8.21958L15.396 10.0376C15.5145 10.2799 15.4194 10.5724 15.1812 10.6988L13.3936 11.6473C13.2574 11.7196 13.1621 11.8507 13.1355 12.0026L12.7859 13.9957C12.7393 14.2613 12.4904 14.4422 12.2233 14.4044L10.2197 14.121C10.067 14.0994 9.91289 14.1495 9.80204 14.2567L8.34765 15.6637C8.15381 15.8512 7.84619 15.8512 7.65235 15.6637L6.19796 14.2567C6.08711 14.1495 5.93299 14.0994 5.78029 14.121L3.77665 14.4044C3.50962 14.4422 3.26074 14.2613 3.21415 13.9957L2.86452 12.0026C2.83787 11.8507 2.74262 11.7196 2.60638 11.6473L0.818831 10.6988C0.580593 10.5724 0.485532 10.2799 0.603973 10.0376L1.49266 8.21958C1.56039 8.08103 1.56039 7.91897 1.49266 7.78042L0.603973 5.96242C0.485532 5.72013 0.580593 5.42756 0.818831 5.30116L2.60638 4.35273C2.74262 4.28045 2.83787 4.14934 2.86452 3.99744L3.21415 2.00429C3.26074 1.73865 3.50962 1.55784 3.77665 1.59561L5.78029 1.87901C5.93299 1.90061 6.08711 1.85053 6.19796 1.7433L7.65235 0.336314Z" fill="#1D9BF0"/>
<mask id="mask0_5928_3333" style="mask-type:alpha" maskUnits="userSpaceOnUse" x="4" y="4" width="8" height="8">
<rect x="4" y="4" width="8" height="8" fill="#C6C6C6"/>
</mask>
<g mask="url(#mask0_5928_3333)">
<path d="M5.00007 7.99995L7.00006 9.99994L11.0001 6" stroke="white" stroke-width="2" stroke-linecap="round" stroke-linejoin="round"/>
</g>
</svg>
